<?xml version="1.0" encoding="UTF-8" standalone="no"?>
<svg width="140px" height="35px" viewBox="0 0 140 35" version="1.1" xmlns="http://www.w3.org/2000/svg" xmlns:xlink="http://www.w3.org/1999/xlink" xmlns:sketch="http://www.bohemiancoding.com/sketch/ns">
    <!-- Generator: Sketch 3.2.2 (9983) - http://www.bohemiancoding.com/sketch -->
    <title>Logo</title>
    <desc>Created with Sketch.</desc>
    <defs></defs>
    <g id="Page-1" stroke="none" stroke-width="1" fill="none" fill-rule="evenodd" sketch:type="MSPage">
        <g id="Logo" sketch:type="MSLayerGroup">
            <g id="attic" fill="#193152" sketch:type="MSShapeGroup">
                <path d="M38.6117422,28.1288941 C37.4852867,28.1288941 36.4668924,27.8477664 35.5565592,27.2865841 C34.646226,26.7254018 33.9760286,25.9657133 33.5448756,25.0042996 C33.2468888,24.3690799 33.0984412,23.6941589 33.0984412,22.9773907 C33.0984412,22.2445274 33.2425227,21.5663874 33.5328688,20.9397517 C33.8221233,20.313116 34.2150729,19.7680288 34.7128091,19.3044901 C35.2105452,18.8409513 35.7846882,18.4750562 36.4396042,18.2057316 C37.0934287,17.93748 37.784365,17.8033542 38.5124133,17.8033542 L53.3135145,17.8033542 L53.3135145,16.6563105 C53.3135145,16.1680926 53.2141856,15.7045539 53.0155277,15.2646213 C52.8168699,14.8257617 52.5472628,14.4469904 52.2088895,14.1293806 C51.8683332,13.8117707 51.4797497,13.5553222 51.0420476,13.360035 C50.6032538,13.1647479 50.1349889,13.0671043 49.6383443,13.0671043 L37.145822,13.0671043 L37.145822,11.2118764 L49.6372528,11.2118764 C50.3980468,11.2118764 51.1184544,11.3545862 51.797384,11.6389329 C52.4763136,11.9243526 53.0635549,12.3138539 53.5601995,12.8106558 C54.0568441,13.3063847 54.4541598,13.8847351 54.7521466,14.543561 C55.0501334,15.2023869 55.198581,15.907352 55.198581,16.6552375 L55.198581,28.1525002 L38.6117422,28.1288941 L38.6117422,28.1288941 Z M36.5749535,20.2444436 C36.0783089,20.5534694 35.6886339,20.9440437 35.4081115,21.4161665 C35.1264977,21.8882893 34.9856907,22.4097704 34.9856907,22.9784637 C34.9856907,23.4505865 35.0806536,23.8862271 35.2716707,24.2853854 C35.4615964,24.6834708 35.7181051,25.0289788 36.041197,25.3229825 C36.3642889,25.6148402 36.7364995,25.8476826 37.1589203,26.0182906 C37.5813411,26.1888986 38.0321416,26.2736661 38.5124133,26.2736661 L53.3135145,26.2736661 L53.3135145,19.6585821 L38.6117422,19.6585821 C38.2307994,19.6585821 37.8662295,19.7122325 37.5191241,19.8163141 C37.1709271,19.9236147 36.8565674,20.0652515 36.5749535,20.2444436 L36.5749535,20.2444436 Z" id="Shape"></path>
                <path d="M78.3203897,15.4352293 L61.8798155,15.4352293 L61.8798155,21.1715211 C61.8798155,21.8882893 62.0118902,22.5514072 62.2771312,23.1608748 C62.5423722,23.7703424 62.9145828,24.3036265 63.3948545,24.7596542 C63.8751262,25.231777 64.4252556,25.6019642 65.0463343,25.8702157 C65.6674129,26.1384673 66.3332442,26.2725931 67.0460111,26.2725931 L81.5491255,26.2725931 L81.5491255,28.127821 L67.0460111,28.127821 C66.0680032,28.127821 65.1543954,27.944337 64.3019131,27.5784418 C63.4494308,27.2114736 62.699552,26.7114527 62.0544598,26.077306 C61.4246489,25.4592543 60.9247297,24.730683 60.5525191,23.8926651 C60.1803085,23.0546472 59.9936575,22.1468838 59.9936575,21.1704481 L59.9936575,11.2108034 L61.880907,11.2108034 L61.880907,13.5789283 L78.3203897,13.5789283 L78.3203897,15.4352293 L78.3203897,15.4352293 Z" id="Shape"></path>
                <path d="M104.221225,15.4352293 L87.7817426,15.4352293 L87.7817426,21.1715211 C87.7817426,21.8882893 87.9149088,22.5514072 88.1790583,23.1608748 C88.4432077,23.7703424 88.8165098,24.3036265 89.2967816,24.7596542 C89.7759617,25.231777 90.3260912,25.6019642 90.9482614,25.8702157 C91.5682485,26.1384673 92.2351713,26.2725931 92.9468466,26.2725931 L107.449961,26.2725931 L107.449961,28.127821 L92.9468466,28.127821 C91.9699303,28.127821 91.0563225,27.944337 90.2027487,27.5784418 C89.3502664,27.2114736 88.6003876,26.7114527 87.9542038,26.077306 C87.3254844,25.4592543 86.8244737,24.730683 86.4522631,23.8926651 C86.078961,23.0546472 85.8934015,22.1468838 85.8934015,21.1704481 L85.8934015,11.2108034 L87.7806511,11.2108034 L87.7806511,13.5789283 L104.221225,13.5789283 L104.221225,15.4352293 L104.221225,15.4352293 Z" id="Shape"></path>
                <path d="M111.797512,28.1288941 L111.797512,11.2118764 L113.684761,11.2118764 L113.684761,28.1288941 L111.797512,28.1288941 L111.797512,28.1288941 Z" id="Shape"></path>
                <path d="M120.464233,26.1030581 C119.818049,25.4689114 119.308306,24.732829 118.937187,23.8937381 C118.563885,23.0557202 118.378326,22.1565409 118.378326,21.1962002 L118.378326,18.1445702 C118.378326,17.2003247 118.563885,16.3054374 118.937187,15.4588354 C119.309398,14.6122334 119.814775,13.8761511 120.452226,13.2495154 C121.089678,12.6239527 121.839557,12.1271508 122.700771,11.7601826 C123.560894,11.3942875 124.47996,11.2108034 125.456876,11.2108034 L139.958899,11.2108034 L139.958899,13.0660313 L125.456876,13.0660313 C124.745201,13.0660313 124.073912,13.2001571 123.444101,13.4684087 C122.815381,13.7366603 122.265252,14.1025554 121.792621,14.5660941 C121.321082,15.0307059 120.948871,15.567209 120.675989,16.1777496 C120.403108,16.7882902 120.265575,17.4428241 120.265575,18.1434972 L120.265575,21.1951272 C120.265575,21.8786322 120.403108,22.5288741 120.675989,23.1469257 C120.948871,23.7660503 121.317807,24.3068455 121.781706,24.7714573 C122.244513,25.234996 122.787002,25.6008912 123.40808,25.8691427 C124.028068,26.1373943 124.69499,26.2715201 125.406666,26.2715201 L139.958899,26.2715201 L139.958899,28.126748 L125.456876,28.126748 C124.478868,28.126748 123.560894,27.943264 122.700771,27.5773688 C121.838465,27.2136197 121.092952,26.7221828 120.464233,26.1030581 L120.464233,26.1030581 Z" id="Shape"></path>
            </g>
            <path d="M22.8806604,28.1685953 C22.5008091,28.1685953 21.945222,28.1482082 21.0108752,28.1074339 L21.0108752,22.1007445 L22.0238119,22.1007445 C25.6684194,22.1007445 27.4912689,20.5244982 27.4912689,17.5265186 C27.4912689,14.71095 25.6989821,13.2248362 22.1165917,13.2248362 L20.0765284,13.2248362 L20.0765284,27.9164388 L13.849369,27.9164388 L13.849369,14.1669358 L19.2720733,10.2171995 L18.7415913,9.4843362 C18.0015363,8.5508207 17.1730676,7.71602178 16.2791073,7.10440818 L21.9004694,7.10440818 C25.4741276,7.10440818 28.2717104,8.04006969 30.2943093,9.63455709 C30.4045535,9.7214706 30.5082485,9.85559639 30.613035,9.94465591 C27.7466861,4.04848618 21.6243132,0.0107633864 14.5326646,0.0107633864 C8.54345799,0.0107633864 3.24409617,2.81882093 0.0153603861,7.41021498 L2.95156704,7.41021498 L2.95156704,27.9164388 L0.294791205,27.9164388 C3.54535753,32.200953 8.71264462,34.9714554 14.5337562,34.9714554 C21.4016418,34.9714554 27.3832077,31.18267 30.3554348,25.5837231 C28.3688563,27.2844381 25.8801755,28.1685953 22.8806604,28.1685953 L22.8806604,28.1685953 Z M11.6150139,12.5703024 C10.6501044,12.5703024 10.1141648,13.2259092 10.1141648,14.538196 L10.1141648,17.2056897 L12.2939435,17.2056897 L12.2939435,22.7145042 L10.1141648,22.7145042 L10.1141648,27.9175118 L4.19809045,27.9175118 L4.19809045,15.2034599 C4.19809045,12.7913417 4.83990812,10.7955499 6.35494709,9.21501162 C7.86889453,7.63554631 9.71903218,6.84581366 12.0188788,6.84581366 C14.5544952,6.84581366 16.6469517,7.92096599 18.3508248,10.0712707 L13.1802631,13.7506093 C12.8942832,12.9630227 12.3441537,12.5703024 11.6150139,12.5703024 L11.6150139,12.5703024 Z" id="ifd" fill="#C1282D" sketch:type="MSShapeGroup"></path>
        </g>
    </g>
</svg>