<?xml version="1.0" encoding="UTF-8" standalone="no"?>
<!-- Created with Inkscape (http://www.inkscape.org/) -->

<svg
   xmlns:dc="http://purl.org/dc/elements/1.1/"
   xmlns:cc="http://creativecommons.org/ns#"
   xmlns:rdf="http://www.w3.org/1999/02/22-rdf-syntax-ns#"
   xmlns:svg="http://www.w3.org/2000/svg"
   xmlns="http://www.w3.org/2000/svg"
   version="1.1"
   width="140"
   height="38"
   id="svg2985"
   xml:space="preserve"><metadata
     id="metadata2991"><rdf:RDF><cc:Work
         rdf:about=""><dc:format>image/svg+xml</dc:format><dc:type
           rdf:resource="http://purl.org/dc/dcmitype/StillImage" /><dc:title></dc:title></cc:Work></rdf:RDF></metadata><defs
     id="defs2989"><clipPath
       id="clipPath3011"><path
         d="m 0,138.987 511.663,0 L 511.663,0 0,0 0,138.987 z"
         id="path3013" /></clipPath></defs><g
     transform="matrix(1.25,0,0,-1.25,-6.2502799e-4,38.000002)"
     id="g2993"><g
       transform="matrix(0.21889429,0,0,0.21889429,6.5911882,30.423461)"
       id="g2995"><path
         d="m 0,0 -30.109,-138.987 211.35,0 41.87,65.597 L 211.351,0 0,0 z"
         id="path2997"
         style="fill:#e2492f;fill-opacity:1;fill-rule:nonzero;stroke:none" /></g><g
       transform="matrix(0.21889429,0,0,0.21889429,9.5109535,27.097581)"
       id="g2999"><path
         d="m 0,0 6.806,0 -23.345,-110.366 -6.8,0 L 0,0 z"
         id="path3001"
         style="fill:#ffffff;fill-opacity:1;fill-rule:nonzero;stroke:none" /></g><g
       transform="matrix(0.21889429,0,0,0.21889429,15.701131,27.097581)"
       id="g3003"><path
         d="m 0,0 69.255,0 -1.241,-5.877 -62.445,0 -9.277,-44.207 55.957,0 -1.082,-5.868 -56.111,0 -11.287,-54.414 -6.801,0 L 0,0 z"
         id="path3005"
         style="fill:#ffffff;fill-opacity:1;fill-rule:nonzero;stroke:none" /></g><g
       transform="matrix(0.21889429,0,0,0.21889429,3.9055285e-4,0)"
       id="g3007"><g
         clip-path="url(#clipPath3011)"
         id="g3009"><g
           transform="translate(136.9414,19.2949)"
           id="g3015"><path
             d="m 0,0 31.839,0 c 38.182,0 53.178,34.319 53.178,59.983 0,25.345 -9.12,38.638 -35.556,38.638 l -28.592,0 L 0,0 z m 15.3,104.498 35.71,0 c 29.524,0 40.806,-16.072 40.806,-44.515 0,-31.689 -21.021,-65.851 -59.203,-65.851 l -40.654,0 23.341,110.366 z"
             id="path3017"
             style="fill:#ffffff;fill-opacity:1;fill-rule:nonzero;stroke:none" /></g><g
           transform="translate(312.8398,58.251)"
           id="g3019"><path
             d="m 0,0 -0.307,0 c -4.328,-4.33 -17.929,-5.411 -24.73,-5.878 -14.843,-0.457 -30.146,-2.005 -30.146,-19.468 0,-11.904 9.74,-16.231 20.247,-16.231 19.171,0 27.674,14.216 32.157,30.755 L 0,0 z m -49.771,11.744 c 4.175,17.78 16.232,24.74 34.161,24.74 8.036,0 24.575,-2.939 24.575,-18.864 0,-7.106 -4.789,-24.728 -5.251,-27.201 -2.011,-8.19 -5.257,-20.867 -5.257,-25.355 0,-2.939 1.395,-5.102 4.328,-5.102 1.703,0 3.553,0.466 5.256,0.933 l -0.927,-5.263 c -2.319,-0.614 -4.791,-0.763 -6.805,-0.763 -5.406,0 -7.725,4.635 -7.725,8.191 0,1.697 0.774,4.634 1.236,6.641 l -0.312,0 c -6.181,-11.586 -19.626,-16.381 -29.982,-16.381 -13.606,0 -24.58,5.877 -24.58,21.334 0,20.402 17.006,24.114 34.936,24.572 C -4.016,0 3.098,3.246 3.098,15.148 c 0,9.9 -5.57,16.233 -19.944,16.233 -14.221,0 -23.342,-6.027 -26.894,-19.637 l -6.031,0 z"
             id="path3021"
             style="fill:#4d4d4d;fill-opacity:1;fill-rule:nonzero;stroke:none" /></g><g
           transform="translate(335.5439,92.8779)"
           id="g3023"><path
             d="m 0,0 14.684,0 5.411,24.89 5.877,0 L 20.56,0 l 17.006,0 -1.239,-5.103 -16.694,0 -12.057,-55.336 c -0.308,-0.933 -1.235,-6.026 -1.235,-7.268 0,-4.477 2.624,-6.642 8.965,-6.642 2.937,0 5.871,0.15 8.809,0.458 l -1.083,-5.104 c -2.005,0 -5.871,-0.456 -9.579,-0.456 -9.277,0 -12.985,4.328 -12.985,11.904 0,2.005 0.774,5.251 1.236,7.574 l 12.057,54.87 -14.996,0 L 0,0 z"
             id="path3025"
             style="fill:#4d4d4d;fill-opacity:1;fill-rule:nonzero;stroke:none" /></g><g
           transform="translate(375.5732,92.8779)"
           id="g3027"><path
             d="m 0,0 14.683,0 5.412,24.89 5.871,0 L 20.556,0 37.557,0 36.326,-5.103 19.627,-5.103 7.57,-60.439 c -0.307,-0.933 -1.235,-6.026 -1.235,-7.268 0,-4.477 2.63,-6.642 8.964,-6.642 2.937,0 5.877,0.15 8.81,0.458 l -1.078,-5.104 c -2.013,0 -5.876,-0.456 -9.59,-0.456 -9.272,0 -12.983,4.328 -12.983,11.904 0,2.005 0.772,5.251 1.239,7.574 l 12.059,54.87 -14.997,0 L 0,0 z"
             id="path3029"
             style="fill:#4d4d4d;fill-opacity:1;fill-rule:nonzero;stroke:none" /></g><g
           transform="translate(433.373,123.793)"
           id="g3031"><path
             d="m 0,0 5.871,0 -3.246,-15.925 -5.873,0 L 0,0 z m -6.492,-30.915 5.871,0 -16.539,-79.451 -5.873,0 16.541,79.451 z"
             id="path3033"
             style="fill:#4d4d4d;fill-opacity:1;fill-rule:nonzero;stroke:none" /></g><g
           transform="translate(507.4033,39.3984)"
           id="g3035"><path
             d="m 0,0 c -6.186,-16.539 -18.236,-27.827 -36.326,-27.827 -21.79,0 -30.607,14.374 -30.607,34.001 0,24.741 17.314,49.163 42.976,49.163 16.381,0 29.366,-10.674 28.136,-26.587 l -5.877,0 c 0,13.441 -8.497,21.483 -22.259,21.483 -23.032,0 -37.099,-23.338 -37.099,-43.741 0,-15.308 7.268,-29.217 24.114,-29.217 14.843,0 25.038,9.114 30.449,22.725 L 0,0 z"
             id="path3037"
             style="fill:#4d4d4d;fill-opacity:1;fill-rule:nonzero;stroke:none" /></g></g></g></g></svg>